<?xml version="1.0" encoding="UTF-8"?>
<svg id="_レイヤー_1" data-name="レイヤー 1" xmlns="http://www.w3.org/2000/svg" viewBox="0 0 500 74.37">
  <defs>
    <style>
      .cls-1 {
        fill: #fff;
      }
    </style>
  </defs>
  <g>
    <path class="cls-1" d="M87.72,37.03c.1.59.27,1.36.51,2.32.24.96.6,1.98,1.07,3.09.47,1.1,1.05,2.23,1.76,3.38.71,1.15,1.58,2.22,2.61,3.2,1.13,1.13,2.22,1.98,3.27,2.57,1.05.59,2.06,1.02,3.01,1.29s1.86.42,2.72.44c.86.02,1.65.04,2.39.04,2.6,0,4.73-.4,6.4-1.21,1.67-.81,2.98-1.8,3.93-2.98.96-1.18,1.63-2.41,2.02-3.71.39-1.3.59-2.44.59-3.42,0-1.81-.43-3.31-1.29-4.48-.86-1.18-2-2.16-3.42-2.94-1.42-.78-3.04-1.45-4.85-1.98-1.81-.54-3.68-1.09-5.59-1.65-1.91-.56-3.77-1.22-5.59-1.98-1.81-.76-3.43-1.74-4.85-2.94-1.42-1.2-2.56-2.68-3.42-4.45-.86-1.76-1.29-3.97-1.29-6.62,0-1.96.44-3.85,1.32-5.66.88-1.81,2.11-3.42,3.68-4.81,1.57-1.4,3.44-2.52,5.62-3.38,2.18-.86,4.54-1.29,7.09-1.29,1.62,0,3.04.15,4.26.44,1.22.29,2.3.6,3.23.92.93.32,1.75.62,2.46.92.71.29,1.36.44,1.95.44.69,0,1.14-.11,1.36-.33.22-.22.45-.62.7-1.21h1.18v13.97h-.96c-.59-1.71-1.21-3.41-1.87-5.07-.66-1.67-1.51-3.17-2.54-4.52-1.03-1.35-2.33-2.44-3.9-3.27-1.57-.83-3.55-1.25-5.95-1.25-1.96,0-3.69.27-5.18.81-1.49.54-2.76,1.25-3.79,2.13-1.03.88-1.81,1.86-2.35,2.94-.54,1.08-.81,2.18-.81,3.31,0,1.72.45,3.14,1.36,4.26.91,1.13,2.09,2.09,3.56,2.9s3.15,1.51,5.04,2.1c1.89.59,3.82,1.2,5.81,1.84,1.98.64,3.92,1.34,5.81,2.1,1.89.76,3.57,1.73,5.04,2.9,1.47,1.18,2.66,2.6,3.56,4.26.91,1.67,1.36,3.72,1.36,6.17s-.49,4.68-1.47,6.84c-.98,2.16-2.36,4.04-4.15,5.66-1.79,1.62-3.92,2.9-6.4,3.86-2.47.96-5.23,1.43-8.27,1.43-1.52,0-3.03-.15-4.52-.44-1.5-.29-2.89-.6-4.19-.92-1.3-.32-2.45-.62-3.45-.92-1-.29-1.75-.44-2.24-.44-.69,0-1.18.11-1.47.33s-.56.67-.81,1.36h-1.18v-16.32h1.1Z"/>
    <path class="cls-1" d="M160.97,54.01c-1.3.19-2.51.29-3.64.29-2.5,0-4.35-.44-5.55-1.32-1.2-.88-1.95-2.11-2.24-3.67h-.15c-.78,1.96-1.86,3.28-3.23,3.97-1.37.69-3.36,1.03-5.95,1.03-1.18,0-2.38-.12-3.6-.37-1.23-.25-2.35-.64-3.38-1.18-1.03-.54-1.86-1.29-2.5-2.24-.64-.96-.96-2.12-.96-3.49s.28-2.61.85-3.56c.56-.96,1.3-1.76,2.21-2.43.91-.66,1.94-1.2,3.09-1.62,1.15-.42,2.34-.82,3.56-1.21,2.01-.59,3.64-1.09,4.89-1.51,1.25-.42,2.22-.86,2.9-1.32.69-.47,1.16-.99,1.43-1.58.27-.59.4-1.35.4-2.28v-4.48c0-1.32-.32-2.52-.96-3.6-.64-1.08-1.84-1.62-3.6-1.62-1.13,0-2.11.26-2.94.77-.83.51-1.25,1.46-1.25,2.83,0,.15.02.4.07.77.05.37.1.77.15,1.21.05.44.1.86.15,1.25.05.39.07.66.07.81,0,.73-.17,1.31-.51,1.73-.34.42-.75.72-1.21.92-.47.2-.96.31-1.47.33-.51.02-.94.04-1.29.04-.49,0-.99-.04-1.51-.11-.51-.07-.97-.24-1.36-.51-.39-.27-.72-.65-.99-1.14-.27-.49-.4-1.15-.4-1.98,0-1.27.35-2.41,1.07-3.42.71-1,1.65-1.84,2.83-2.5,1.18-.66,2.51-1.16,4.01-1.51,1.49-.34,3.05-.51,4.67-.51,1.86,0,3.61.15,5.26.44,1.64.29,3.06.83,4.26,1.62,1.2.78,2.16,1.85,2.87,3.2.71,1.35,1.07,3.05,1.07,5.11v18.23c0,.93.13,1.75.4,2.46.27.71.94,1.07,2.02,1.07.64,0,1.16-.12,1.58-.37.42-.24.82-.59,1.21-1.03l.66.66c-.69,1.03-1.68,1.64-2.98,1.84ZM148.95,35.12c-.1.29-.28.58-.55.85s-.75.58-1.43.92c-.93.44-1.86.87-2.79,1.29-.93.42-1.76.94-2.5,1.58s-1.34,1.42-1.8,2.35c-.47.93-.7,2.13-.7,3.6,0,.59.04,1.28.11,2.06.07.78.27,1.54.59,2.28.32.74.8,1.36,1.43,1.87.64.51,1.52.77,2.65.77.64,0,1.26-.15,1.87-.44.61-.29,1.16-.75,1.65-1.36.49-.61.88-1.42,1.18-2.43.29-1,.44-2.22.44-3.64v-9.7h-.15Z"/>
    <path class="cls-1" d="M169.83,52.32v-29.48h-4.85v-1.03h13.67v7.35h.15c.2-.44.54-1.11,1.03-2.02.49-.91,1.2-1.8,2.13-2.68.93-.88,2.13-1.65,3.6-2.32s3.31-.99,5.51-.99c3.23,0,5.75.93,7.53,2.79,1.79,1.86,2.68,4.41,2.68,7.64v20.73h4.93v1.03h-18.45v-1.03h4.56v-23.23c0-2.06-.42-3.57-1.25-4.52-.83-.96-1.96-1.43-3.38-1.43-1.18,0-2.3.28-3.38.84-1.08.56-2.02,1.41-2.83,2.54-.81,1.13-1.46,2.52-1.95,4.19-.49,1.67-.73,3.63-.73,5.88v15.73h4.63v1.03h-18.45v-1.03h4.85Z"/>
    <path class="cls-1" d="M246.56,52.32v1.03h-13.67v-5.44h-.15c-.78,2.06-1.87,3.64-3.27,4.74-1.4,1.1-3.2,1.65-5.4,1.65-2.4,0-4.58-.47-6.54-1.4-1.96-.93-3.64-2.17-5.04-3.71-1.4-1.54-2.49-3.32-3.27-5.33-.78-2.01-1.18-4.12-1.18-6.32,0-1.71.31-3.55.92-5.51.61-1.96,1.57-3.77,2.87-5.44,1.3-1.67,2.95-3.05,4.96-4.15,2.01-1.1,4.43-1.65,7.28-1.65,2.2,0,3.99.51,5.37,1.54,1.37,1.03,2.43,2.57,3.16,4.63h.15V1.38h-5V.35h13.97v51.97h4.85ZM232.49,32.4c-.17-1.86-.53-3.58-1.07-5.15-.54-1.57-1.35-2.87-2.43-3.9-1.08-1.03-2.52-1.54-4.34-1.54-1.23,0-2.27.27-3.12.81-.86.54-1.56,1.42-2.1,2.65-.54,1.23-.92,2.86-1.14,4.89-.22,2.03-.33,4.52-.33,7.46,0,2.4.06,4.57.18,6.51.12,1.94.39,3.59.81,4.96.42,1.37,1.03,2.43,1.84,3.16s1.9,1.1,3.27,1.1c2.06,0,3.66-.53,4.81-1.58,1.15-1.05,2.02-2.38,2.61-3.97.59-1.59.94-3.31,1.07-5.15.12-1.84.18-3.52.18-5.04,0-1.62-.09-3.36-.26-5.22Z"/>
    <path class="cls-1" d="M308.89,16.01c-1.28-4.8-3.19-8.54-5.73-11.21-2.55-2.67-5.95-3.98-10.22-3.93-3.38,0-6.1.65-8.16,1.95-2.06,1.3-3.64,2.99-4.74,5.07-1.1,2.08-1.83,4.46-2.17,7.13-.34,2.67-.51,5.38-.51,8.12v6.39c0,4.46.29,8.21.88,11.25.59,3.04,1.51,5.49,2.76,7.35,1.25,1.86,2.87,3.2,4.85,4.01s4.35,1.21,7.09,1.21c2.25,0,4.04-.4,5.37-1.21s2.34-1.91,3.05-3.31c.71-1.4,1.16-3.05,1.36-4.96.2-1.91.29-3.99.29-6.25v-2.79h-7.57v-1.03h22.71v1.03h-4.78v16.83h-1.32c-.1-.59-.38-1.02-.85-1.29-.47-.27-.99-.4-1.58-.4-1.18,0-2.29.23-3.34.7-1.05.47-2.19.97-3.42,1.51-1.23.54-2.63,1.04-4.23,1.51-1.59.46-3.52.7-5.77.7-3.58,0-7.03-.7-10.36-2.09-3.33-1.4-6.26-3.31-8.78-5.73-2.52-2.43-4.55-5.28-6.06-8.56-1.52-3.28-2.28-6.84-2.28-10.66,0-4.16.85-7.94,2.54-11.32,1.69-3.38,3.86-6.27,6.51-8.67,2.65-2.4,5.6-4.25,8.86-5.55,3.26-1.3,6.46-1.95,9.59-1.95,1.47,0,2.89.15,4.26.44s2.65.6,3.82.92c1.18.32,2.23.62,3.16.92.93.29,1.71.44,2.35.44.69,0,1.18-.11,1.47-.33.29-.22.56-.62.81-1.21h1.25v14.99h-1.1Z"/>
    <path class="cls-1" d="M351.93,54.01c-1.3.19-2.51.29-3.64.29-2.5,0-4.35-.44-5.55-1.32-1.2-.88-1.95-2.11-2.24-3.67h-.15c-.78,1.96-1.86,3.28-3.23,3.97-1.37.69-3.36,1.03-5.95,1.03-1.18,0-2.38-.12-3.6-.37-1.23-.25-2.35-.64-3.38-1.18-1.03-.54-1.86-1.29-2.5-2.24-.64-.96-.96-2.12-.96-3.49s.28-2.61.85-3.56c.56-.96,1.3-1.76,2.21-2.43.91-.66,1.94-1.2,3.09-1.62,1.15-.42,2.34-.82,3.56-1.21,2.01-.59,3.64-1.09,4.89-1.51,1.25-.42,2.22-.86,2.9-1.32.68-.47,1.16-.99,1.43-1.58.27-.59.4-1.35.4-2.28v-4.48c0-1.32-.32-2.52-.96-3.6-.64-1.08-1.84-1.62-3.6-1.62-1.13,0-2.11.26-2.94.77-.83.51-1.25,1.46-1.25,2.83,0,.15.02.4.07.77.05.37.1.77.15,1.21s.1.86.15,1.25c.05.39.07.66.07.81,0,.73-.17,1.31-.52,1.73-.34.42-.75.72-1.21.92-.47.2-.96.31-1.47.33-.51.02-.94.04-1.29.04-.49,0-.99-.04-1.51-.11-.51-.07-.97-.24-1.36-.51-.39-.27-.72-.65-.99-1.14-.27-.49-.4-1.15-.4-1.98,0-1.27.35-2.41,1.07-3.42.71-1,1.65-1.84,2.83-2.5,1.18-.66,2.51-1.16,4.01-1.51,1.49-.34,3.05-.51,4.67-.51,1.86,0,3.61.15,5.26.44,1.64.29,3.06.83,4.26,1.62,1.2.78,2.16,1.85,2.87,3.2.71,1.35,1.07,3.05,1.07,5.11v18.23c0,.93.13,1.75.4,2.46.27.71.94,1.07,2.02,1.07.64,0,1.16-.12,1.58-.37.41-.24.82-.59,1.21-1.03l.66.66c-.69,1.03-1.68,1.64-2.98,1.84ZM339.91,35.12c-.1.29-.28.58-.55.85-.27.27-.75.58-1.43.92-.93.44-1.86.87-2.79,1.29-.93.42-1.76.94-2.5,1.58-.73.64-1.34,1.42-1.8,2.35-.47.93-.7,2.13-.7,3.6,0,.59.04,1.28.11,2.06s.27,1.54.59,2.28c.32.74.8,1.36,1.43,1.87.64.51,1.52.77,2.65.77.64,0,1.26-.15,1.87-.44.61-.29,1.16-.75,1.65-1.36.49-.61.88-1.42,1.18-2.43.29-1,.44-2.22.44-3.64v-9.7h-.15Z"/>
    <path class="cls-1" d="M369.39.35v51.97h4.93v1.03h-18.82v-1.03h4.93V1.38h-4.93V.35h13.89Z"/>
    <path class="cls-1" d="M388.13.35v51.97h4.93v1.03h-18.82v-1.03h4.93V1.38h-4.93V.35h13.89Z"/>
    <path class="cls-1" d="M404.3,38.21c0,1.76.07,3.54.22,5.33.15,1.79.54,3.41,1.18,4.85.64,1.45,1.57,2.63,2.79,3.57,1.22.93,2.94,1.4,5.15,1.4,1.96,0,3.61-.37,4.96-1.1,1.35-.73,2.45-1.58,3.31-2.54.86-.96,1.49-1.9,1.91-2.83.42-.93.65-1.62.7-2.06l1.03.37c-.25.93-.66,1.92-1.25,2.98-.59,1.05-1.4,2.03-2.43,2.94-1.03.91-2.3,1.67-3.82,2.28-1.52.61-3.36.92-5.51.92-2.55,0-4.92-.38-7.13-1.14-2.21-.76-4.13-1.86-5.77-3.31-1.64-1.44-2.93-3.21-3.86-5.29-.93-2.08-1.4-4.45-1.4-7.09,0-2.11.44-4.16,1.32-6.17.88-2.01,2.09-3.79,3.64-5.33,1.54-1.54,3.36-2.79,5.44-3.75,2.08-.96,4.32-1.43,6.73-1.43,1.71,0,3.43.27,5.15.81,1.71.54,3.26,1.37,4.63,2.5,1.37,1.13,2.5,2.59,3.38,4.37.88,1.79,1.32,3.93,1.32,6.43h-21.68v3.31ZM416.06,28.95c0-.54-.02-1.2-.07-1.98-.05-.78-.22-1.57-.52-2.35-.29-.78-.77-1.45-1.43-1.98-.66-.54-1.58-.81-2.76-.81-1.67,0-2.95.39-3.86,1.18-.91.78-1.58,1.78-2.02,2.98-.44,1.2-.72,2.5-.85,3.9-.12,1.4-.21,2.73-.26,4.01h11.76v-4.92Z"/>
    <path class="cls-1" d="M443.7,21.82v6.17h.15c.88-1.86,2.07-3.47,3.57-4.81,1.49-1.35,3.47-2.02,5.92-2.02,2.06,0,3.72.55,5,1.65s1.91,2.63,1.91,4.59c0,1.47-.36,2.62-1.07,3.45-.71.83-1.85,1.25-3.42,1.25-1.13,0-2.16-.23-3.09-.7-.93-.47-1.4-1.33-1.4-2.61,0-.15.02-.4.07-.77.05-.37.11-.76.18-1.18.07-.42.13-.8.18-1.14.05-.34.07-.54.07-.59-.05-.39-.12-.7-.22-.92-.1-.22-.26-.42-.48-.59-.22-.17-.55-.26-.99-.26-.49,0-1.1.23-1.84.7-.74.47-1.42,1.14-2.06,2.02-.64.88-1.19,1.95-1.65,3.2s-.7,2.66-.7,4.23v18.82h5.81v1.03h-19.55v-1.03h4.78v-29.48h-4.78v-1.03h13.6Z"/>
    <path class="cls-1" d="M495.44,22.85h-6.1v-1.03h10.66v1.03h-3.38c-2.75,5.88-5.1,11.15-7.06,15.8-1.96,4.66-3.66,8.8-5.11,12.42-1.45,3.63-2.72,6.82-3.82,9.59-1.1,2.77-2.14,5.21-3.12,7.31-.98,2.21-2.08,3.82-3.31,4.85-1.23,1.03-2.87,1.54-4.93,1.54-2.21,0-4.01-.53-5.4-1.58-1.4-1.05-2.09-2.51-2.09-4.37,0-1.42.45-2.45,1.36-3.09.91-.64,2-.96,3.27-.96.93,0,1.81.26,2.65.77.83.51,1.25,1.29,1.25,2.32,0,.88-.16,1.59-.48,2.13-.32.54-.48,1.18-.48,1.91,0,.54.15.94.44,1.21s.64.4,1.03.4c.88,0,1.7-.32,2.46-.96s1.44-1.43,2.06-2.39c.61-.96,1.15-1.97,1.62-3.05.46-1.08.87-2.06,1.21-2.94l3.16-7.87-13.82-33.08h-3.9v-1.03h18.67v1.03h-5.15l8.97,21.24,9.33-21.24Z"/>
  </g>
  <g>
    <path class="cls-1" d="M47.3,5.78l-24.08,40.7c-.5.84-.24,1.91.59,2.44,4.25,2.69,13.42,7.47,25.84,7.28,11.64-.18,20.2-4.64,24.37-7.28.83-.53,1.09-1.6.59-2.44-8.03-13.57-16.05-27.14-24.08-40.7-.72-1.22-2.52-1.22-3.24,0Z"/>
    <path class="cls-1" d="M14.41.33L.15,22.12c-.29.45-.14,1.02.35,1.31,2.52,1.44,7.95,4,15.31,3.9,6.89-.1,11.97-2.49,14.44-3.9.49-.28.65-.86.35-1.31C25.84,14.85,21.09,7.59,16.33.33c-.43-.65-1.49-.65-1.92,0Z"/>
  </g>
</svg>